HIERARCHY
ROOT Hips
{
	OFFSET -1.602300 6.242603 43.997101
	CHANNELS 6 Xposition Yposition Zposition Zrotation Xrotation Yrotation
	JOINT Chest
	{
		OFFSET -0.204900 1.598101 7.917301
		CHANNELS 6 Xposition Yposition Zposition Zrotation Xrotation Yrotation
		JOINT Chest2
		{
			OFFSET 0.000000 0.000000 3.404099
			CHANNELS 6 Xposition Yposition Zposition Zrotation Xrotation Yrotation
			JOINT Neck
			{
				OFFSET 0.000000 0.000000 7.928600
				CHANNELS 6 Xposition Yposition Zposition Zrotation Xrotation Yrotation
				JOINT Head
				{
					OFFSET 0.000000 0.000000 2.173897
					CHANNELS 6 Xposition Yposition Zposition Zrotation Xrotation Yrotation
					End Site
					{
						OFFSET 0.000000 0.000001 10.404503
					}
				}
			}
			JOINT LeftCollar
			{
				OFFSET 2.833800 -1.396299 4.843300
				CHANNELS 6 Xposition Yposition Zposition Zrotation Xrotation Yrotation
				JOINT LeftShoulder
				{
					OFFSET 4.363600 0.000000 0.000000
					CHANNELS 6 Xposition Yposition Zposition Zrotation Xrotation Yrotation
					JOINT LeftElbow
					{
						OFFSET 0.000000 -0.000001 -10.306900
						CHANNELS 6 Xposition Yposition Zposition Zrotation Xrotation Yrotation
						JOINT LeftWrist
						{
							OFFSET 0.000000 -0.000001 -12.404900
							CHANNELS 6 Xposition Yposition Zposition Zrotation Xrotation Yrotation
							End Site
							{
								OFFSET 0.000000 0.000000 -2.173901
							}
						}
					}
				}
			}
			JOINT RightCollar
			{
				OFFSET -2.354800 -1.897200 5.063099
				CHANNELS 6 Xposition Yposition Zposition Zrotation Xrotation Yrotation
				JOINT RightShoulder
				{
					OFFSET -4.375800 0.000000 0.000000
					CHANNELS 6 Xposition Yposition Zposition Zrotation Xrotation Yrotation
					JOINT RightElbow
					{
						OFFSET 0.000000 -0.000001 -10.005001
						CHANNELS 6 Xposition Yposition Zposition Zrotation Xrotation Yrotation
						JOINT RightWrist
						{
							OFFSET 0.000000 -0.000001 -13.174900
							CHANNELS 6 Xposition Yposition Zposition Zrotation Xrotation Yrotation
							End Site
							{
								OFFSET 0.000000 0.000000 -2.173901
							}
						}
					}
				}
			}
		}
	}
	JOINT LeftHip
	{
		OFFSET 2.240600 0.386800 -2.614101
		CHANNELS 6 Xposition Yposition Zposition Zrotation Xrotation Yrotation
		JOINT LeftKnee
		{
			OFFSET 0.000000 -0.000001 -18.592899
			CHANNELS 6 Xposition Yposition Zposition Zrotation Xrotation Yrotation
			JOINT LeftAnkle
			{
				OFFSET 0.000000 -0.000001 -18.765800
				CHANNELS 6 Xposition Yposition Zposition Zrotation Xrotation Yrotation
				End Site
				{
					OFFSET 0.000000 -8.655000 0.000000
				}
			}
		}
	}
	JOINT RightHip
	{
		OFFSET -2.014900 -0.220900 -2.615898
		CHANNELS 6 Xposition Yposition Zposition Zrotation Xrotation Yrotation
		JOINT RightKnee
		{
			OFFSET 0.000000 -0.000001 -18.633900
			CHANNELS 6 Xposition Yposition Zposition Zrotation Xrotation Yrotation
			JOINT RightAnkle
			{
				OFFSET 0.000000 -0.000001 -18.285101
				CHANNELS 6 Xposition Yposition Zposition Zrotation Xrotation Yrotation
				End Site
				{
					OFFSET 0.000000 -7.524500 0.000000
				}
			}
		}
	}
}
MOTION
Frames: 5
Frame Time: 0.041667
6.072899 11.216502 34.723606 6.284755 10.040331 0.244538 -0.204901 1.598102 7.917305 -6.288564 0.370266 -0.365435 0.000000 -0.000000 3.404105 6.543673 -6.800176 0.180095 0.000001 0.000001 7.928602 -3.304800 0.198861 -1.136123 0.000000 0.000001 2.173907 -1.410806 -2.773156 -0.927008 2.833802 -1.396301 4.843303 -7.405383 11.574643 7.843154 4.363596 0.000009 -0.000007 -57.256082 -10.123040 -67.253690 -0.000001 0.000005 -10.306899 -163.216960 -130.448581 -142.309655 0.000002 0.000000 -12.404893 -134.359971 172.114579 -159.313288 -2.354801 -1.897202 5.063101 19.432580 11.020456 -7.466799 -4.375795 0.000006 0.000000 40.804161 -30.157061 70.806338 -0.000001 0.000014 -10.005001 -71.504779 -21.224797 -89.009850 -0.000005 0.000004 -13.174897 124.800301 1.883076 57.957413 2.240597 0.386803 -2.614100 45.199081 -45.904148 28.284075 0.000002 -0.000000 -18.592894 -100.831849 54.440327 86.944729 -0.000001 -0.000003 -18.765800 30.623341 -19.798488 10.647154 -2.014899 -0.220898 -2.615898 -112.600231 -24.488433 -78.015964 -0.000002 0.000010 -18.633884 116.643676 15.607076 -121.654521 0.000009 -0.000005 -18.285089 -32.041152 16.782084 -105.590893
6.071900 11.234601 34.646004 6.329947 10.083747 0.225612 -0.204900 1.598099 7.917309 -6.332928 0.371321 -0.353090 0.000001 -0.000000 3.404097 6.551380 -6.812141 0.178292 0.000001 0.000003 7.928602 -3.331470 0.204245 -1.147166 0.000000 -0.000001 2.173900 -1.375196 -2.713005 -0.955446 2.833802 -1.396299 4.843305 -7.337059 11.544992 7.820591 4.363595 0.000006 0.000003 -57.384367 -9.992197 -67.343978 0.000002 0.000006 -10.306902 -163.208928 -130.345404 -142.356865 0.000007 -0.000000 -12.404889 -133.831478 172.218466 -160.041673 -2.354800 -1.897198 5.063103 19.434058 11.032455 -7.470977 -4.375794 0.000006 0.000001 40.858151 -30.225704 70.847558 -0.000006 0.000009 -10.005007 -71.540125 -21.271950 -89.004687 -0.000007 0.000010 -13.174898 124.785712 1.875775 57.990410 2.240599 0.386803 -2.614104 45.276463 -46.041025 28.576762 0.000001 0.000001 -18.592894 -101.261174 54.440245 87.407283 0.000001 -0.000005 -18.765799 30.803480 -19.927041 10.748160 -2.014896 -0.220900 -2.615897 -112.970093 -24.083843 -78.373866 -0.000002 0.000008 -18.633892 116.796522 15.162871 -121.586506 0.000007 -0.000005 -18.285091 -32.518681 16.742737 -105.883771
6.070800 11.251302 34.571507 6.349329 10.109488 0.223959 -0.204900 1.598100 7.917302 -6.349731 0.385127 -0.370271 0.000001 0.000000 3.404105 6.629216 -6.885028 0.159570 0.000000 -0.000001 7.928598 -3.410301 0.294209 -1.113462 -0.000000 0.000001 2.173905 -1.345067 -2.663817 -0.979068 2.833800 -1.396302 4.843300 -7.413825 11.632470 7.803086 4.363595 0.000007 -0.000001 -57.436031 -10.010162 -67.459258 0.000005 0.000005 -10.306899 -163.301996 -130.244099 -142.385593 0.000004 0.000004 -12.404890 -134.271725 172.135602 -159.227433 -2.354801 -1.897202 5.063102 19.370054 11.120900 -7.448721 -4.375795 0.000006 -0.000009 40.897844 -30.339519 70.894727 -0.000008 0.000010 -10.005001 -71.529190 -21.258472 -88.990938 -0.000004 0.000003 -13.174893 124.819071 1.870074 57.999631 2.240598 0.386803 -2.614103 45.371499 -46.173370 28.842502 0.000001 0.000000 -18.592892 -101.682385 54.538709 87.863465 0.000001 -0.000003 -18.765800 30.888827 -20.033734 10.797908 -2.014898 -0.220898 -2.615901 -113.224777 -23.823042 -78.670966 -0.000003 0.000006 -18.633888 116.890437 14.940009 -121.534091 0.000007 -0.000006 -18.285089 -32.744545 16.710584 -105.985002
6.069000 11.267406 34.498707 6.355603 10.119829 0.239226 -0.204901 1.598100 7.917314 -6.352938 0.422763 -0.404495 0.000001 0.000003 3.404105 6.615819 -6.880698 0.161754 -0.000001 0.000001 7.928604 -3.417297 0.299319 -1.114531 0.000000 -0.000001 2.173901 -1.320317 -2.645870 -0.998691 2.833800 -1.396298 4.843310 -7.430010 11.663818 7.789581 4.363594 0.000001 0.000004 -57.476547 -9.983789 -67.640531 0.000002 0.000004 -10.306897 -163.228639 -130.200044 -142.286842 0.000005 -0.000000 -12.404896 -133.863334 172.252986 -159.899414 -2.354802 -1.897200 5.063099 19.435074 11.166337 -7.457662 -4.375793 0.000005 0.000007 40.916402 -30.476123 70.977748 -0.000005 0.000012 -10.005007 -71.516766 -21.203542 -88.972728 -0.000006 0.000004 -13.174898 124.916865 1.872136 58.019568 2.240599 0.386798 -2.614100 45.481349 -46.305052 29.085053 0.000004 0.000002 -18.592896 -102.101923 54.789780 88.325459 -0.000000 -0.000003 -18.765799 30.825962 -20.113389 10.753440 -2.014897 -0.220894 -2.615901 -113.412238 -23.646617 -78.916279 -0.000000 0.000005 -18.633888 117.007424 14.985737 -121.536372 0.000005 -0.000007 -18.285089 -32.683719 16.699044 -105.924063
6.067200 11.283202 34.428207 6.349080 10.147961 0.266699 -0.204901 1.598101 7.917311 -6.342346 0.437131 -0.461122 0.000000 -0.000002 3.404107 6.579780 -6.876414 0.162226 0.000000 -0.000000 7.928594 -3.380084 0.312865 -1.123899 -0.000001 0.000001 2.173896 -1.319428 -2.628886 -1.002768 2.833801 -1.396300 4.843294 -7.421404 11.682015 7.784978 4.363594 0.000009 0.000002 -57.521183 -9.973301 -67.827235 0.000005 0.000002 -10.306906 -163.110709 -130.191807 -142.106211 0.000005 0.000004 -12.404898 -133.939067 172.277602 -159.860537 -2.354802 -1.897200 5.063100 19.519540 11.234078 -7.429490 -4.375793 0.000008 -0.000001 40.931452 -30.633112 71.034937 -0.000007 0.000013 -10.005001 -71.514266 -21.180907 -88.953624 -0.000006 0.000005 -13.174900 124.971971 1.872545 58.014787 2.240599 0.386803 -2.614098 45.666283 -46.452902 29.353124 0.000003 0.000003 -18.592892 -102.530579 55.176174 88.791066 0.000001 -0.000005 -18.765799 30.608489 -20.155344 10.607881 -2.014897 -0.220898 -2.615899 -113.577085 -23.494927 -79.153157 -0.000001 0.000007 -18.633886 117.181854 15.250646 -121.595508 0.000006 -0.000005 -18.285089 -32.380165 16.711881 -105.711671
